<svg width="20" height="8" viewBox="0 0 20 8" fill="none" xmlns="http://www.w3.org/2000/svg">
<path d="M2.71357 0.707466H0.833313V7.38936H2.71357V0.707466Z" fill="#CBD2D9"/>
<path fill-rule="evenodd" clip-rule="evenodd" d="M6.77381 0.707466L6.34648 3.81532L6.04734 2.14485C5.96188 1.60098 5.87641 1.1348 5.83368 0.707466H3.35516V7.38936H5.02175V2.99951L5.70548 7.38936H6.902L7.58573 2.88297V7.38936H9.25232V0.707466H6.77381Z" fill="#CBD2D9"/>
<path fill-rule="evenodd" clip-rule="evenodd" d="M12.1602 7.38936C12.6302 7.38936 12.9721 7.35051 13.1858 7.31166C13.3994 7.27281 13.6131 7.19512 13.7413 7.07857C13.9122 6.96203 13.9977 6.80664 14.0832 6.61239C14.1259 6.41815 14.1686 5.99082 14.1686 5.4081V3.07721C14.1686 2.45563 14.1259 2.0283 14.0832 1.79522C14.0404 1.56213 13.955 1.36789 13.784 1.21249C13.6131 1.01825 13.3567 0.901707 13.0576 0.82401C12.7584 0.746314 12.2029 0.707466 11.3055 0.707466H9.89532V7.38936H12.1602ZM12.2029 1.91176C12.2884 1.95061 12.3311 2.0283 12.3311 2.106C12.3738 2.1837 12.3738 2.37794 12.3738 2.68872V5.29155C12.3738 5.71888 12.3311 5.99082 12.2884 6.10737C12.2456 6.22391 12.0747 6.26276 11.7756 6.26276V1.87291C11.9892 1.87291 12.1174 1.87291 12.2029 1.91176Z" fill="#CBD2D9"/>
<path fill-rule="evenodd" clip-rule="evenodd" d="M14.851 0.705512V7.3874H16.5603L16.6885 6.96007C16.8594 7.11547 17.0303 7.27086 17.2013 7.34856C17.3722 7.42625 17.6713 7.4651 17.885 7.4651C18.1841 7.4651 18.4405 7.3874 18.6542 7.23201C18.8679 7.07662 18.9961 6.92123 19.0815 6.72698C19.1243 6.53274 19.167 6.22196 19.167 5.83348V3.96876C19.167 3.58028 19.167 3.30834 19.1243 3.1918C19.1243 3.07525 19.0388 2.95871 18.9533 2.80332C18.8679 2.68677 18.6969 2.57023 18.526 2.49253C18.3551 2.41483 18.1414 2.37598 17.885 2.37598C17.6713 2.37598 17.3722 2.41483 17.2013 2.49253C17.0303 2.57023 16.8594 2.68677 16.6885 2.84216V0.666664H14.851V0.705512ZM17.2867 5.75578C17.2867 6.06656 17.2867 6.26081 17.244 6.37735C17.2013 6.45505 17.0731 6.4939 16.9449 6.4939C16.8167 6.4939 16.7739 6.45505 16.7312 6.37735C16.6885 6.29965 16.6885 6.10541 16.6885 5.79463V4.04646C16.6885 3.73567 16.6885 3.54143 16.7312 3.46373C16.7739 3.38604 16.8594 3.34719 16.9449 3.34719C17.0731 3.34719 17.2013 3.38604 17.244 3.46373C17.2867 3.54143 17.2867 3.73567 17.2867 4.00761V5.75578Z" fill="#CBD2D9"/>
</svg>
