<svg width="14" height="14" viewBox="0 0 14 14" fill="none" xmlns="http://www.w3.org/2000/svg">
<path d="M6.72824 0.583336C6.30823 0.583336 5.92762 0.830686 5.75704 1.21449L3.7966 5.62548C3.74904 5.7325 3.7242 5.78769 3.70384 5.82654L3.70203 5.82997L3.69817 5.83023C3.6544 5.83306 3.59387 5.83334 3.47677 5.83334L3.01083 5.83334C2.70333 5.83332 2.43805 5.83332 2.21955 5.85117C1.98893 5.87001 1.75955 5.91161 1.53883 6.02408C1.20955 6.19185 0.941831 6.45957 0.774053 6.78885C0.66159 7.00957 0.619989 7.23895 0.601147 7.46957C0.583295 7.68806 0.583304 7.95333 0.583313 8.26083V10.9892C0.583304 11.2966 0.583295 11.5619 0.601147 11.7804C0.619989 12.0111 0.66159 12.2404 0.774053 12.4612C0.941831 12.7904 1.20955 13.0582 1.53883 13.2259C1.75955 13.3384 1.98893 13.38 2.21955 13.3988C2.43805 13.4167 2.70332 13.4167 3.01082 13.4167C3.28097 13.4167 3.49998 13.1977 3.49998 12.9275L3.49998 8.16667C3.49998 7.8445 3.76115 7.58334 4.08331 7.58334C4.40548 7.58334 4.66665 7.8445 4.66665 8.16667V12.4833C4.66665 12.81 4.66665 12.9734 4.73023 13.0982C4.78615 13.2079 4.87539 13.2972 4.98515 13.3531C5.10993 13.4167 5.27328 13.4167 5.59998 13.4167H9.28641C9.69403 13.4167 10.0324 13.4167 10.3109 13.3955C10.6016 13.3734 10.8696 13.3259 11.1283 13.2087C11.5329 13.0253 11.8768 12.7303 12.1195 12.3583C12.2747 12.1204 12.3623 11.8628 12.4284 11.5788C12.4917 11.3068 12.5432 10.9724 12.6051 10.5695L12.9176 8.53863C12.9997 8.00492 13.067 7.56735 13.0908 7.21025C13.1154 6.8418 13.0993 6.498 12.9736 6.16846C12.7806 5.66246 12.4176 5.23935 11.9469 4.97166C11.6403 4.79732 11.3029 4.72916 10.935 4.69742C10.5784 4.66665 10.1357 4.66666 9.59571 4.66667H9.09998C8.92701 4.66667 8.83236 4.66622 8.76435 4.66066L8.75666 4.65999L8.75599 4.6523C8.75043 4.58429 8.74998 4.48964 8.74998 4.31667V2.60508C8.74998 1.4885 7.84482 0.583336 6.72824 0.583336Z" fill="#CBD2D9"/>
</svg>
