<svg width="21" height="22" viewBox="0 0 21 22" fill="none" xmlns="http://www.w3.org/2000/svg">
<path d="M15 1V12M20 8.8V4.2C20 3.07989 20 2.51984 19.782 2.09202C19.5903 1.71569 19.2843 1.40973 18.908 1.21799C18.4801 1 17.9201 1 16.8 1H6.118C4.65652 1 3.92578 1 3.33557 1.26743C2.81539 1.50314 2.37329 1.88242 2.06123 2.36072C1.70716 2.90339 1.59605 3.62564 1.37382 5.07012L0.850742 8.47012C0.557636 10.3753 0.411083 11.3279 0.693796 12.0691C0.941934 12.7197 1.40864 13.2637 2.01391 13.6079C2.70352 14 3.66732 14 5.59493 14H6.39999C6.96004 14 7.24007 14 7.45398 14.109C7.64214 14.2049 7.79512 14.3578 7.891 14.546C7.99999 14.7599 7.99999 15.0399 7.99999 15.6V18.5342C7.99999 19.896 9.10399 21 10.4658 21C10.7907 21 11.085 20.8087 11.2169 20.5119L14.5777 12.9502C14.7305 12.6062 14.807 12.4343 14.9278 12.3082C15.0346 12.1967 15.1657 12.1115 15.3109 12.0592C15.4752 12 15.6634 12 16.0398 12H16.8C17.9201 12 18.4801 12 18.908 11.782C19.2843 11.5903 19.5903 11.2843 19.782 10.908C20 10.4802 20 9.9201 20 8.8Z" stroke="white" stroke-linecap="round" stroke-linejoin="round"/>
</svg>
